<svg width="165" height="210" viewBox="0 0 165 210" fill="none" xmlns="http://www.w3.org/2000/svg">
<path d="M26.25 0C19.2881 0 12.6113 2.76562 7.68845 7.68845C2.76561 12.6113 0 19.2881 0 26.25V183.75C0 190.712 2.76561 197.389 7.68845 202.312C12.6113 207.234 19.2881 210 26.25 210H98.4375V0H26.25ZM61.875 30.9375C65.6046 30.9375 69.1815 32.4191 71.8187 35.0563C74.4559 37.6935 75.9375 41.2704 75.9375 45V67.5C75.9375 71.2296 74.4559 74.8065 71.8187 77.4437C69.1815 80.0809 65.6046 81.5625 61.875 81.5625H52.5C48.7704 81.5625 45.1935 80.0809 42.5563 77.4437C39.9191 74.8065 38.4375 71.2296 38.4375 67.5V45C38.4375 41.2704 39.9191 37.6935 42.5563 35.0563C45.1935 32.4191 48.7704 30.9375 52.5 30.9375H61.875ZM165 183.75V26.25C165 19.2881 162.234 12.6113 157.312 7.68845C152.389 2.76562 145.712 0 138.75 0H126.562V210H138.75C145.712 210 152.389 207.234 157.312 202.312C162.234 197.389 165 190.712 165 183.75Z" fill="#AE0C00"/>
</svg>
