<svg width="64" height="64" viewBox="0 0 64 64" fill="none" xmlns="http://www.w3.org/2000/svg">
    <g clip-path="url(#clip0_151_1803)">
        <path
            d="M59.36 8.93333C59.1097 8.64063 58.7989 8.40563 58.449 8.24451C58.0992 8.08339 57.7185 7.99997 57.3334 8H33.3334C32.9547 8.00048 32.5806 8.08158 32.2357 8.23791C31.8909 8.39424 31.5833 8.62222 31.3334 8.90667C31.0829 9.19201 30.8962 9.52756 30.7858 9.89086C30.6754 10.2542 30.6439 10.6369 30.6934 11.0133L33.36 31.0133C33.4056 31.3635 33.5196 31.7013 33.6957 32.0074C33.8718 32.3135 34.1064 32.582 34.3862 32.7974C34.666 33.0128 34.9855 33.1711 35.3265 33.263C35.6674 33.355 36.0232 33.3789 36.3734 33.3333C36.7236 33.2878 37.0614 33.1738 37.3675 32.9977C37.6736 32.8216 37.942 32.587 38.1575 32.3072C38.3729 32.0273 38.5311 31.7078 38.623 31.3669C38.715 31.0259 38.7389 30.6702 38.6934 30.32L36.5334 14.08C36.5183 13.9889 36.5249 13.8956 36.5527 13.8075C36.5805 13.7195 36.6287 13.6392 36.6934 13.5733C36.7493 13.5054 36.8182 13.4492 36.896 13.408C36.9738 13.3668 37.059 13.3414 37.1467 13.3333H53.3334C53.4311 13.3279 53.5287 13.347 53.6172 13.3889C53.7057 13.4308 53.7823 13.4942 53.84 13.5733C53.9052 13.6444 53.9534 13.7293 53.9811 13.8217C54.0088 13.914 54.0153 14.0115 54 14.1067L51.0934 31.6267C50.9767 32.3339 51.1457 33.0585 51.5633 33.6412C51.9809 34.2238 52.6128 34.6166 53.32 34.7333C53.6702 34.7911 54.0284 34.7794 54.374 34.6987C54.7197 34.6181 55.046 34.4702 55.3345 34.2634C55.9171 33.8458 56.31 33.2139 56.4267 32.5067L60 11.1733C60.0698 10.7759 60.0484 10.3678 59.9376 9.97975C59.8267 9.59174 59.6292 9.23395 59.36 8.93333Z"
            fill="#AE0C00" />
        <path
            d="M50.6667 37.3336H34.6667C34.5426 37.338 34.4201 37.3047 34.3153 37.2381C34.2106 37.1714 34.1285 37.0745 34.08 36.9602L31.52 32.0002C31.4232 31.7985 31.2772 31.6244 31.0955 31.4939C30.9137 31.3634 30.7021 31.2808 30.48 31.2536C30.2559 31.2277 30.0288 31.2581 29.8193 31.3419C29.6099 31.4257 29.4245 31.5603 29.28 31.7336L24.2667 37.8936C23.8542 38.3307 23.2928 38.5971 22.6933 38.6402H20.0267C19.8471 38.6366 19.6686 38.6693 19.502 38.7364C19.3353 38.8034 19.1839 38.9035 19.0569 39.0305C18.9299 39.1575 18.8299 39.3089 18.7628 39.4755C18.6957 39.6422 18.663 39.8206 18.6667 40.0002V56.0002C18.6623 56.208 18.7086 56.4136 18.8015 56.5995C18.8944 56.7853 19.0312 56.9457 19.2 57.0669C25.3333 61.6802 30.08 64.0002 33.3333 64.0002H48.1333C49.2944 64.1967 50.4864 63.9336 51.457 63.2666C52.4275 62.5997 53.1005 61.5812 53.3333 60.4269C54.6325 54.1265 55.5233 47.7488 56 41.3336C56 39.3336 54.16 37.3336 50.6667 37.3336ZM12.88 36.0002H4.66667C4.48986 36.0002 4.32029 36.0705 4.19526 36.1955C4.07024 36.3205 4 36.4901 4 36.6669V60.6669C4 60.8437 4.07024 61.0133 4.19526 61.1383C4.32029 61.2633 4.48986 61.3336 4.66667 61.3336H12.88C13.103 61.3598 13.3291 61.3387 13.5434 61.2718C13.7578 61.2049 13.9556 61.0937 14.1242 60.9453C14.2927 60.7969 14.4281 60.6147 14.5215 60.4105C14.615 60.2063 14.6645 59.9848 14.6667 59.7602V37.5736C14.6645 37.349 14.615 37.1275 14.5215 36.9233C14.4281 36.7191 14.2927 36.5369 14.1242 36.3885C13.9556 36.2401 13.7578 36.1288 13.5434 36.0619C13.3291 35.995 13.103 35.974 12.88 36.0002ZM41.3333 24.0002C41.3333 25.0611 41.7548 26.0785 42.5049 26.8286C43.2551 27.5788 44.2725 28.0002 45.3333 28.0002C46.3942 28.0002 47.4116 27.5788 48.1618 26.8286C48.9119 26.0785 49.3333 25.0611 49.3333 24.0002C49.3333 22.9394 48.9119 21.9219 48.1618 21.1718C47.4116 20.4216 46.3942 20.0002 45.3333 20.0002C44.2725 20.0002 43.2551 20.4216 42.5049 21.1718C41.7548 21.9219 41.3333 22.9394 41.3333 24.0002ZM26.6667 29.3336C27.0558 29.3386 27.4414 29.2583 27.7963 29.0985C28.1511 28.9387 28.4667 28.7031 28.7208 28.4083C28.9749 28.1135 29.1615 27.7667 29.2673 27.3921C29.3731 27.0176 29.3956 26.6244 29.3333 26.2402L25.9467 6.10689C25.881 5.93517 25.881 5.74527 25.9467 5.57355C26.028 5.46507 26.1405 5.38398 26.2692 5.3411C26.3978 5.29822 26.5365 5.29559 26.6667 5.33356H48C48.7072 5.33356 49.3855 5.0526 49.8856 4.55251C50.3857 4.05241 50.6667 3.37413 50.6667 2.66689C50.6667 1.95964 50.3857 1.28137 49.8856 0.78127C49.3855 0.281173 48.7072 0.000221794 48 0.000221794H22.6667C22.2775 -0.00479755 21.8919 0.0754318 21.5371 0.235277C21.1822 0.395122 20.8666 0.630708 20.6125 0.925494C20.3584 1.22028 20.1719 1.56712 20.0661 1.94166C19.9602 2.31621 19.9377 2.70937 20 3.09356L24 27.0936C24.1022 27.7246 24.4277 28.2978 24.9172 28.709C25.4066 29.1201 26.0275 29.3418 26.6667 29.3336Z"
            fill="#AE0C00" />
    </g>
    <defs>
        <clipPath id="clip0_151_1803">
            <rect width="64" height="64" fill="white" />
        </clipPath>
    </defs>
</svg>