<svg width="240" height="240" viewBox="0 0 240 240" fill="none" xmlns="http://www.w3.org/2000/svg">
<path d="M120 150C122.833 150 125.21 149.04 127.13 147.12C129.05 145.2 130.007 142.827 130 140C129.993 137.173 129.033 134.8 127.12 132.88C125.207 130.96 122.833 130 120 130C117.167 130 114.793 130.96 112.88 132.88C110.967 134.8 110.007 137.173 110 140C109.993 142.827 110.953 145.203 112.88 147.13C114.807 149.057 117.18 150.013 120 150ZM127.13 107.12C129.043 105.207 130 102.833 130 100V60C130 57.1667 129.04 54.7933 127.12 52.88C125.2 50.9667 122.827 50.0067 120 50C117.173 49.9933 114.8 50.9533 112.88 52.88C110.96 54.8067 110 57.18 110 60V100C110 102.833 110.96 105.21 112.88 107.13C114.8 109.05 117.173 110.007 120 110C122.827 109.993 125.203 109.033 127.13 107.12ZM60 180L37 203C33.8334 206.167 30.2067 206.877 26.12 205.13C22.0333 203.383 19.9933 200.257 20 195.75V40C20 34.5 21.96 29.7933 25.88 25.88C29.8 21.9667 34.5067 20.0067 40 20H200C205.5 20 210.21 21.96 214.13 25.88C218.05 29.8 220.007 34.5067 220 40V160C220 165.5 218.043 170.21 214.13 174.13C210.217 178.05 205.507 180.007 200 180H60ZM51.5 160H200V40H40V171.25L51.5 160Z" fill="#FFC3C3"/>
</svg>
