<svg width="184" height="184" viewBox="0 0 184 184" fill="none" xmlns="http://www.w3.org/2000/svg">
<path d="M92 11.5C76.0786 11.5 60.5148 16.2212 47.2766 25.0667C34.0385 33.9121 23.7206 46.4845 17.6277 61.194C11.5349 75.9034 9.94071 92.0893 13.0468 107.705C16.1529 123.32 23.8198 137.664 35.0779 148.922C46.3361 160.18 60.6798 167.847 76.2953 170.953C91.9107 174.059 108.097 172.465 122.806 166.372C137.516 160.279 150.088 149.962 158.933 136.723C167.779 123.485 172.5 107.921 172.5 92C172.5 70.6501 164.019 50.1746 148.922 35.0779C133.825 19.9812 113.35 11.5 92 11.5ZM46 103.5C43.7256 103.5 41.5021 102.826 39.611 101.562C37.7198 100.298 36.2458 98.5022 35.3754 96.4009C34.505 94.2995 34.2773 91.9872 34.721 89.7565C35.1647 87.5257 36.26 85.4766 37.8683 83.8683C39.4766 82.26 41.5257 81.1647 43.7565 80.721C45.9873 80.2772 48.2995 80.505 50.4009 81.3754C52.5022 82.2458 54.2983 83.7198 55.5619 85.6109C56.8256 87.5021 57.5 89.7255 57.5 92C57.5 95.05 56.2884 97.9751 54.1318 100.132C51.9751 102.288 49.05 103.5 46 103.5ZM92 103.5C89.7256 103.5 87.5021 102.826 85.611 101.562C83.7198 100.298 82.2458 98.5022 81.3754 96.4009C80.505 94.2995 80.2773 91.9872 80.721 89.7565C81.1647 87.5257 82.26 85.4766 83.8683 83.8683C85.4766 82.26 87.5257 81.1647 89.7565 80.721C91.9873 80.2772 94.2996 80.505 96.4009 81.3754C98.5023 82.2458 100.298 83.7198 101.562 85.6109C102.826 87.5021 103.5 89.7255 103.5 92C103.5 95.05 102.288 97.9751 100.132 100.132C97.9751 102.288 95.05 103.5 92 103.5ZM138 103.5C135.726 103.5 133.502 102.826 131.611 101.562C129.72 100.298 128.246 98.5022 127.375 96.4009C126.505 94.2995 126.277 91.9872 126.721 89.7565C127.165 87.5257 128.26 85.4766 129.868 83.8683C131.477 82.26 133.526 81.1647 135.756 80.721C137.987 80.2772 140.3 80.505 142.401 81.3754C144.502 82.2458 146.298 83.7198 147.562 85.6109C148.826 87.5021 149.5 89.7255 149.5 92C149.5 95.05 148.288 97.9751 146.132 100.132C143.975 102.288 141.05 103.5 138 103.5Z" fill="#FFBB6D"/>
</svg>
