<svg width="64" height="64" viewBox="0 0 64 64" fill="none" xmlns="http://www.w3.org/2000/svg">
    <path
        d="M38.2827 6.92001C38.3389 6.84924 38.409 6.79066 38.4886 6.74781C38.5682 6.70496 38.6556 6.67875 38.7457 6.67077C38.8357 6.66279 38.9265 6.6732 39.0124 6.70138C39.0982 6.72956 39.1775 6.77491 39.2453 6.83468L41.704 9.00001L33.9707 18.6667H39.0907L44.7067 11.648L49.112 15.5333C49.2423 15.6485 49.3224 15.8099 49.3354 15.9832C49.3483 16.1566 49.2931 16.3282 49.1813 16.4613L47.3413 18.6667H52.5253C53.1675 17.7266 53.4438 16.5842 53.3024 15.4546C53.1609 14.325 52.6114 13.286 51.7573 12.5333L41.8907 3.83201C41.4147 3.41282 40.8582 3.09505 40.2553 2.89812C39.6524 2.70119 39.0157 2.62923 38.384 2.68663C37.7524 2.74403 37.1391 2.92959 36.5815 3.23197C36.024 3.53436 35.534 3.94722 35.1413 4.44534L23.936 18.6667H29.0293L38.2827 6.92001ZM14 17.3333C13.4696 17.3333 12.9609 17.5441 12.5858 17.9191C12.2107 18.2942 12 18.8029 12 19.3333C12 19.8638 12.2107 20.3725 12.5858 20.7476C12.9609 21.1226 13.4696 21.3333 14 21.3333H48.6667C50.9652 21.3333 53.1696 22.2464 54.7949 23.8718C56.4202 25.4971 57.3333 27.7015 57.3333 30V47.3333C57.3333 49.6319 56.4202 51.8363 54.7949 53.4616C53.1696 55.0869 50.9652 56 48.6667 56H16.6667C14.3681 56 12.1637 55.0869 10.5384 53.4616C8.91309 51.8363 8 49.6319 8 47.3333V19.3333C8 17.742 8.63214 16.2159 9.75736 15.0907C10.8826 13.9655 12.4087 13.3333 14 13.3333H25.52L22.3413 17.3333H14ZM41.3333 39.3333C41.3333 40.4373 42.2293 41.3333 43.3333 41.3333H48.6667C49.1971 41.3333 49.7058 41.1226 50.0809 40.7476C50.456 40.3725 50.6667 39.8638 50.6667 39.3333C50.6667 38.8029 50.456 38.2942 50.0809 37.9191C49.7058 37.5441 49.1971 37.3333 48.6667 37.3333H43.3333C42.8029 37.3333 42.2942 37.5441 41.9191 37.9191C41.544 38.2942 41.3333 38.8029 41.3333 39.3333Z"
        fill="#AE0C00" />
</svg>